<svg width="14" height="18" viewBox="0 0 14 18" fill="none" xmlns="http://www.w3.org/2000/svg">
<path d="M6.51544 17.179C6.65676 17.279 6.82563 17.3327 6.99877 17.3327C7.17191 17.3327 7.34078 17.279 7.4821 17.179C7.73544 16.9982 13.6896 12.6998 13.6654 7.33317C13.6654 3.65734 10.6746 0.666504 6.99877 0.666504C3.32294 0.666504 0.332105 3.65734 0.332105 7.32984C0.307938 12.6998 6.2621 16.9982 6.51544 17.179ZM6.99877 2.33317C9.75627 2.33317 11.9988 4.57567 11.9988 7.3365C12.0163 11.0348 8.3421 14.3557 6.99877 15.4457C5.65627 14.3557 1.98127 11.0348 1.99877 7.33317C1.99877 4.57567 4.24127 2.33317 6.99877 2.33317Z" fill="white"/>
</svg>
