<svg width="170" height="27" viewBox="0 0 170 27" fill="none" xmlns="http://www.w3.org/2000/svg">
<g clip-path="url(#clip0_69_1879)">
<path d="M13.8729 9.60028C16.0808 9.60028 17.8807 11.3521 17.8807 13.4989C17.8807 15.6482 16.0808 17.3994 13.8729 17.3994C11.6649 17.3994 9.86537 15.6482 9.86537 13.4989C9.86537 11.3521 11.6649 9.60028 13.8729 9.60028Z" fill="#1A468E"/>
<path d="M0.984004 18.4844C0.35008 16.9409 0 15.2599 0 13.5002C0 11.7421 0.35008 10.0583 0.984004 8.51517L9.86926 13.5002L0.984004 18.4844Z" fill="#F89C0E"/>
<path d="M13.8726 4.81898C18.7863 4.81898 22.7935 8.71821 22.7935 13.5C22.7935 18.2796 18.7863 22.1809 13.8726 22.1809C10.5839 22.1809 7.70202 20.4324 6.15658 17.844L1.86719 20.2511C4.27294 24.28 8.75637 27 13.8726 27C21.5129 27 27.7443 20.9347 27.7443 13.5C27.7443 6.06446 21.5129 0.000240326 13.8726 0.000240326C8.75637 0.000240326 4.27216 2.72027 1.86719 6.74957L6.15404 9.15585C7.70202 6.56593 10.5839 4.81898 13.8726 4.81898Z" fill="#1A468E"/>
<path d="M42.2379 11.1498C42.2379 9.71263 43.1274 9.45537 44.5667 9.45537C46.6867 9.45537 46.9317 10.1182 46.9317 12.0901H43.3362V14.6509H46.9317C46.9317 16.6394 46.6867 17.5417 44.5667 17.5417C42.9947 17.5417 42.2379 17.4313 42.2379 15.8107V15.4061H38.3379V15.9945C38.3379 19.9547 40.5724 20.5659 44.358 20.5659C48.2198 20.5659 50.832 20.3054 50.832 15.2582V11.6835C50.832 7.26365 48.5787 6.4351 44.4147 6.4351C40.6478 6.4351 38.3379 8.27694 38.3379 11.1498H42.2379Z" fill="#1A468E"/>
<path d="M56.3601 9.58438H58.9529C60.4306 9.58438 60.6581 10.0628 60.6581 11.4811C60.6581 13.2679 60.3927 13.5268 58.9529 13.5268H56.3601V9.58438ZM56.3601 16.5477H59.711C63.6674 16.5477 64.5566 15.3318 64.5566 11.444C64.5566 7.83351 63.233 6.56258 59.711 6.56258H52.5743V20.3796H56.3601V16.5477Z" fill="#1A468E"/>
<path d="M78.6867 9.76803H82.5099V6.56258H71.0762V9.76803H74.8999V20.3796H78.6867V9.76803Z" fill="#1A468E"/>
<path d="M87.5641 9.58438H94.0201V6.56258H83.7773V20.3796H94.1513V17.3592H87.5641V14.6682H93.6216V12.1075H87.5641V9.58438Z" fill="#1A468E"/>
<path d="M97.8059 6.56248V15.626C97.8059 16.989 97.4463 17.5051 96.406 17.5051C95.8933 17.5051 95.5916 17.4873 95.25 17.3769V20.3618C95.8365 20.4747 96.3676 20.5293 97.1805 20.5293C100.059 20.5293 101.403 18.5918 101.403 15.5704V9.76884H105.511V20.3795H109.296V6.56248H97.8059Z" fill="#1A468E"/>
<path d="M115.202 9.58438H121.658V6.56258H111.416V20.3796H121.791V17.3592H115.202V14.6682H121.26V12.1075H115.202V9.58438Z" fill="#1A468E"/>
<path d="M127.716 6.56258H123.93V20.3796H127.716V14.9645H128.852L132.808 20.3796H137.502L132.088 13.3426L137.086 6.56258H132.505L128.852 11.7576H127.716V6.56258Z" fill="#1A468E"/>
<path d="M143.736 17.3583C141.768 17.3583 141.068 17.0821 141.068 15.0173V11.9055C141.068 9.84269 141.768 9.6394 143.736 9.6394C145.705 9.6394 146.405 9.85975 146.405 11.9055V15.0173C146.405 17.0821 145.705 17.3583 143.736 17.3583ZM143.736 20.5659C147.58 20.5659 150.304 19.6786 150.304 15.4235V11.5187C150.304 7.26255 147.58 6.4351 143.736 6.4351C139.894 6.4351 137.168 7.26255 137.168 11.5187V15.4235C137.168 19.6786 139.894 20.5659 143.736 20.5659Z" fill="#1A468E"/>
<path d="M163.462 6.56258L160.888 15.2391H160.754L158.048 6.56258H152.047V20.3796H155.834L155.454 9.78672L155.625 9.75135L159.202 20.3796H162.476L166.037 9.75135L166.207 9.78672L165.828 20.3796H169.613V6.56258H163.462Z" fill="#1A468E"/>
<path d="M68.1538 15.3693C67.2217 14.9484 66.8143 13.8642 67.2477 12.957C67.6806 12.0508 68.7952 11.6549 69.7268 12.0762C70.6589 12.4974 71.0664 13.5806 70.632 14.4872C70.1991 15.3955 69.0854 15.7914 68.1538 15.3693Z" fill="#F89C0E"/>
</g>
<defs>
<clipPath id="clip0_69_1879">
<rect width="169.615" height="27" fill="white"/>
</clipPath>
</defs>
</svg>
