<svg width="28" height="28" viewBox="0 0 28 28" fill="none" xmlns="http://www.w3.org/2000/svg">
<path d="M14.0014 2.33325C8.85524 2.33325 4.66807 6.52042 4.66807 11.6608C4.63424 19.1799 12.9701 25.1988 13.3247 25.4496C13.5222 25.5906 13.7588 25.6664 14.0014 25.6664C14.244 25.6664 14.4806 25.5906 14.6781 25.4496C15.0327 25.1988 23.3686 19.1799 23.3347 11.6666C23.3347 6.52042 19.1476 2.33325 14.0014 2.33325ZM14.0014 23.0241C12.1219 21.4981 6.9769 16.8478 7.00141 11.6666C7.00141 7.80609 10.1409 4.66659 14.0014 4.66659C17.8619 4.66659 21.0014 7.80609 21.0014 11.6724C21.0259 16.8489 15.8821 21.4993 14.0014 23.0241Z" fill="black"/>
<path d="M12.8326 13.517L10.1575 10.8419L8.50781 12.4915L12.8326 16.8164L19.4908 10.1582L17.8411 8.50854L12.8326 13.517Z" fill="black"/>
</svg>
