<svg width="28" height="28" viewBox="0 0 28 28" fill="none" xmlns="http://www.w3.org/2000/svg">
<path d="M19.372 12.8894C20.0825 11.6785 20.3894 10.2729 20.2482 8.87604C20.0393 6.79471 18.8773 4.95488 16.978 3.69604L15.6888 5.63971C16.9943 6.50538 17.7888 7.73855 17.9265 9.10938C17.99 9.74649 17.9107 10.3897 17.6943 10.9924C17.478 11.595 17.13 12.1418 16.6758 12.593L15.2852 13.9837L17.1728 14.5379C22.1102 15.9845 22.1673 20.9499 22.1673 21H24.5007C24.5007 18.9129 23.3853 14.8342 19.372 12.8894Z" fill="black"/>
<path d="M11.082 14.0001C13.6557 14.0001 15.7487 11.9071 15.7487 9.33341C15.7487 6.75975 13.6557 4.66675 11.082 4.66675C8.50836 4.66675 6.41536 6.75975 6.41536 9.33341C6.41536 11.9071 8.50836 14.0001 11.082 14.0001ZM11.082 7.00008C12.3689 7.00008 13.4154 8.04658 13.4154 9.33341C13.4154 10.6202 12.3689 11.6667 11.082 11.6667C9.7952 11.6667 8.7487 10.6202 8.7487 9.33341C8.7487 8.04658 9.7952 7.00008 11.082 7.00008ZM12.832 15.1667H9.33203C5.47153 15.1667 2.33203 18.3062 2.33203 22.1667V23.3334H4.66536V22.1667C4.66536 19.5931 6.75836 17.5001 9.33203 17.5001H12.832C15.4057 17.5001 17.4987 19.5931 17.4987 22.1667V23.3334H19.832V22.1667C19.832 18.3062 16.6925 15.1667 12.832 15.1667Z" fill="black"/>
</svg>
