<svg width="40" height="40" viewBox="0 0 40 40" fill="none" xmlns="http://www.w3.org/2000/svg">
<g clip-path="url(#clip0_2034_73)">
<path d="M19.8207 40C30.7674 40 39.6414 31.0457 39.6414 20C39.6414 8.9543 30.7674 0 19.8207 0C8.87404 0 0 8.9543 0 20C0 31.0457 8.87404 40 19.8207 40Z" fill="white"/>
<path d="M20.5452 27.3299V12.93C20.5452 12.2162 21.1306 11.5762 21.8868 11.5762C22.643 11.5762 23.2285 12.2162 23.2285 12.93V19.9946L31.1323 11.9946C31.6691 11.4531 32.4984 11.4531 33.0351 11.9946C33.5474 12.5116 33.5474 13.3731 33.0351 13.9146L27.6683 19.3053L33.0839 26.4683C33.5718 27.0344 33.4742 27.896 32.8887 28.3637C32.6447 28.5852 32.352 28.6837 32.0349 28.6837C31.669 28.6837 31.3031 28.5114 31.0347 28.1914L25.7656 21.2253L23.2285 23.8345V27.3299C23.2285 28.0683 22.6431 28.6837 21.8869 28.6837C21.1307 28.6837 20.5452 28.0683 20.5452 27.3299Z" fill="#3259CA"/>
<path d="M18.3879 27.3554C18.3879 28.0665 17.7782 28.643 17.026 28.643C16.2738 28.643 15.6641 28.0665 15.6641 27.3554V16.2427C15.6641 15.5315 16.2738 14.9551 17.026 14.9551C17.7782 14.9551 18.3879 15.5315 18.3879 16.2427V27.3554Z" fill="#3259CA"/>
<path d="M13.7102 27.3514C13.7102 28.0625 13.1004 28.639 12.3483 28.639C11.5961 28.639 10.9863 28.0625 10.9863 27.3514V18.9736C10.9863 18.2624 11.5961 17.686 12.3483 17.686C13.1004 17.686 13.7102 18.2624 13.7102 18.9736V27.3514Z" fill="#3259CA"/>
<path d="M9.10669 27.448C9.10669 28.1205 8.49692 28.6657 7.74475 28.6657C6.99258 28.6657 6.38281 28.1206 6.38281 27.448V22.1112C6.38281 21.4387 6.99258 20.8934 7.74475 20.8934C8.49692 20.8934 9.10669 21.4386 9.10669 22.1112V27.448Z" fill="#3259CA"/>
</g>
<defs>
<clipPath id="clip0_2034_73">
<rect width="40" height="40" fill="white"/>
</clipPath>
</defs>
</svg>
