<svg width="100" height="35" viewBox="0 0 100 35" fill="none" xmlns="http://www.w3.org/2000/svg">
<g clip-path="url(#clip0_29_668)">
<path fill-rule="evenodd" clip-rule="evenodd" d="M30.0859 10.9614L39.4748 13.4997C39.5705 13.1889 39.6955 12.888 39.8482 12.6008C37.0095 10.983 34.1708 9.39912 31.3498 7.78139C30.7907 8.78162 30.3658 9.85075 30.0859 10.9614ZM41.8166 14.5177H49.5548C49.5345 14.3165 49.5024 14.1167 49.4584 13.9193L58.9057 11.4108C59.1364 12.4938 59.3509 13.6215 59.3509 14.7532C56.162 14.7898 52.9378 14.8615 49.7665 14.8981V15.2934L59.3509 15.311C59.2966 16.4251 59.2152 17.5758 58.9233 18.671C55.7805 17.852 52.5862 17.0682 49.4434 16.2491C49.4958 16.0262 49.5335 15.8001 49.5561 15.5723H41.818V14.5177H41.8166ZM31.6349 7.29539L40.045 12.261C40.2198 11.9831 40.4207 11.7224 40.6451 11.4826C38.3182 9.22314 35.975 6.91228 33.6658 4.61902C32.8898 5.43327 32.2069 6.33088 31.6295 7.29539H31.6349ZM34.0582 4.22236L40.9152 11.2091C41.1562 10.986 41.418 10.7866 41.6972 10.6134C40.0233 7.82471 38.3508 4.98182 36.7122 2.17413C35.732 2.73188 34.8415 3.48592 34.0582 4.22236ZM37.1928 1.88714L42.0148 10.4347C42.3089 10.2792 42.6177 10.1532 42.9366 10.0584C42.0379 6.91498 41.1419 3.73637 40.2785 0.592946C39.1925 0.879942 38.1417 1.38354 37.1969 1.88714H37.1928ZM40.827 0.449448L43.2923 9.965C43.6112 9.89332 43.9362 9.85252 44.263 9.84316C44.21 6.57384 44.1584 3.26932 44.1272 0C43.0045 0 41.8642 0.215248 40.8311 0.449448H40.827ZM44.6933 0L44.639 9.84586C44.9657 9.86038 45.2902 9.9057 45.6083 9.98124C46.4011 6.81481 47.1953 3.59693 48.0058 0.431848C46.9197 0.143498 45.7617 0.0541502 44.6933 0ZM48.5407 0.575346L45.9681 10.0814C46.2822 10.181 46.5859 10.3107 46.8749 10.4686C48.4456 7.61894 50.034 4.71784 51.64 1.86954C50.6598 1.29419 49.5738 0.921908 48.5407 0.575346ZM52.1206 2.13893L47.1899 10.6568C47.4647 10.8333 47.7224 11.0349 47.9596 11.2592C50.22 8.92531 52.4966 6.53864 54.7746 4.20476C53.9736 3.39251 53.0288 2.74948 52.1206 2.13893ZM55.1669 4.58246L48.2311 11.5313C48.4515 11.7743 48.6487 12.0371 48.8203 12.3165C51.6088 10.6419 54.4148 8.93208 57.2033 7.27779C56.6507 6.28955 55.9027 5.40961 55.1669 4.58246ZM57.4829 7.74484L48.9954 12.636C49.1485 12.931 49.2735 13.2396 49.3688 13.5579C52.4912 12.6671 55.6448 11.7438 58.7658 10.872C58.4807 9.77547 57.9812 8.73308 57.4829 7.74484ZM58.7835 19.1963L49.3484 16.6146C49.2501 16.9306 49.1219 17.2366 48.9656 17.5284C51.7934 19.1326 54.6673 20.7192 57.5006 22.341C58.0708 21.3528 58.4509 20.2752 58.7835 19.1963ZM57.2331 22.8081L48.7742 17.8425C48.6004 18.1188 48.4009 18.378 48.1782 18.6168C50.4942 20.9182 52.8631 23.2007 55.1791 25.502C55.9815 24.6898 56.6222 23.7584 57.2277 22.8054L57.2331 22.8081ZM54.8099 25.8811L47.9148 18.8849C47.6752 19.1062 47.4157 19.3051 47.1397 19.4792C48.8 22.3126 50.4955 25.1284 52.1382 27.9442C53.1184 27.3865 53.9736 26.65 54.8099 25.877V25.8811ZM51.6753 28.2177L46.8233 19.6647C46.5325 19.8203 46.2269 19.9469 45.9111 20.0424C46.7948 23.2115 47.7112 26.3793 48.576 29.5295C49.662 29.2425 50.6775 28.7565 51.6753 28.2177ZM48.0601 29.6554L45.554 20.1371C45.2365 20.2095 44.9129 20.2516 44.5874 20.263C44.6227 23.5553 44.6933 26.8477 44.7232 30.1224C45.8484 30.1006 46.967 29.9438 48.0547 29.6554H48.0601ZM44.1937 30.1048L44.2114 20.2617C43.8856 20.2472 43.562 20.2018 43.2448 20.1263C42.4303 23.313 41.6565 26.5174 40.8446 29.6865C41.94 29.9594 43.0647 30.0981 44.1937 30.0994V30.1048ZM40.3464 29.5295L42.8864 20.0342C42.5715 19.9368 42.2669 19.8089 41.9768 19.6525C40.3885 22.5197 38.8178 25.4046 37.2118 28.2542C38.1961 28.8144 39.25 29.2431 40.3464 29.5295ZM36.7842 27.9659L41.6605 19.467C41.3849 19.2915 41.1263 19.0907 40.8881 18.8673C38.6114 21.2174 36.3525 23.5851 34.0758 25.9177C34.8826 26.7182 35.7935 27.4071 36.7842 27.9659ZM33.7378 25.54L40.6206 18.5965C40.4009 18.3587 40.2041 18.1008 40.0328 17.8263C37.2281 19.4995 34.441 21.189 31.6526 22.8446C32.2215 23.8334 32.923 24.7402 33.7378 25.54ZM31.4218 22.3776L39.8387 17.4892C39.6865 17.2005 39.5619 16.8982 39.4667 16.5862C36.3334 17.4743 33.2002 18.3623 30.0995 19.2504C30.4033 20.3446 30.8463 21.3955 31.4177 22.3776H31.4218Z" fill="#C20831"/>
<path fill-rule="evenodd" clip-rule="evenodd" d="M66.2333 2.81512C66.2492 2.39019 66.4316 1.98844 66.7413 1.6961C67.0509 1.40376 67.4632 1.24415 67.8895 1.25153H70.1526V0.226739H57.9671V1.25153H60.746C61.8158 1.25153 62.2068 2.02453 62.2068 2.81512C62.2068 11.0094 62.2787 18.1789 62.2068 26.3556C62.2068 26.9675 62.2068 28.4228 60.7813 28.4228H57.9671V29.6195H70.1526V28.416H67.747C67.2841 28.3794 66.9094 28.11 67.0519 27.8054L78.15 3.36474C78.3102 3.07775 78.3821 3.43649 78.3278 4.42473C78.3278 11.8826 78.1853 18.8734 78.1853 26.3556C78.1853 27.4697 77.6694 28.3686 76.9214 28.4228H74.285V29.6195H86.0239V28.416H83.6183C82.5146 28.1642 82.1046 27.4453 82.1046 26.3488V2.81512C82.3544 1.93382 83.0847 1.25153 83.4947 1.25153H86.0239V0.226739H74.285V1.25153H77.2418C77.6328 1.26913 77.7943 1.73618 77.5445 2.13147C75.4607 6.91158 68.3878 22.2591 66.4125 26.2838C66.2767 26.4097 66.2876 26.2121 66.2347 26.3556V2.81512H66.2333ZM8.74862 0.205078H-0.0511041V1.39097H2.72783C3.54237 1.39097 3.54237 1.89456 3.54237 2.43336C3.54237 4.19324 3.64962 7.71301 3.64962 8.97471V23.2785L3.54237 26.3339C3.54237 28.1669 1.04852 28.4187 -0.162424 28.4187L-0.234375 29.6046H8.95769L8.92239 28.4187C5.60858 28.4187 4.93251 27.1611 4.93251 26.3339V1.53447H5.0384L13.3426 29.6046H14.4463L22.2482 2.3941V26.3339C22.2482 28.4187 21.2871 28.4187 18.1525 28.4187V29.6046H30.2348L30.3054 28.4187C27.0635 28.4187 26.64 28.4187 26.64 26.3339V2.39681C26.64 1.39097 27.2821 1.24747 30.5239 1.24747V0.205078H21.7595L15.1984 22.2009L8.74862 0.205078Z" fill="#1E1E1E"/>
<path fill-rule="evenodd" clip-rule="evenodd" d="M-0.179688 32.4515H85.9754V35.0007H-0.179688V32.4515Z" fill="#1E1E1E"/>
</g>
<defs>
<clipPath id="clip0_29_668">
<rect width="99.2857" height="35" fill="white"/>
</clipPath>
</defs>
</svg>
