<svg width="101" height="55" viewBox="0 0 101 55" fill="none" xmlns="http://www.w3.org/2000/svg">
<g clip-path="url(#clip0_69_1844)">
<path d="M43.0032 30.7208H43.0193C43.1889 30.4589 43.4077 30.2326 43.6635 30.0547C44.01 29.8376 44.4114 29.7253 44.8198 29.7313C45.1209 29.7168 45.4211 29.7749 45.6952 29.901C45.9693 30.027 46.2092 30.2173 46.3949 30.4557C46.8136 31.0248 46.8329 31.8074 46.8329 32.4186V37.3339C46.8534 37.6267 46.8152 37.9206 46.7206 38.1984C46.626 38.4761 46.4769 38.7319 46.2822 38.9508C46.1003 39.1374 45.8811 39.2832 45.6391 39.3785C45.397 39.4738 45.1375 39.5165 44.8778 39.5038C44.4337 39.5096 43.9979 39.3836 43.6249 39.1416C43.3869 38.9942 43.1756 38.8072 43 38.5886V43.2388H41.0996V29.8704H43L43.0032 30.7208ZM43.0032 36.3605C42.9861 36.5319 43.0042 36.7049 43.0563 36.869C43.1083 37.0331 43.1933 37.1847 43.306 37.3145C43.3988 37.4115 43.5104 37.4886 43.6339 37.5408C43.7574 37.5931 43.8902 37.6195 44.0243 37.6185C44.1495 37.6244 44.2746 37.6019 44.39 37.5527C44.5054 37.5034 44.6083 37.4286 44.691 37.3339C44.8707 37.1223 44.9598 36.848 44.939 36.5707V32.729C44.9605 32.5767 44.9494 32.4215 44.9067 32.2738C44.8639 32.1261 44.7904 31.9891 44.691 31.8721C44.6085 31.777 44.5057 31.7017 44.3903 31.6519C44.2749 31.6021 44.1498 31.579 44.0243 31.5843C43.8886 31.5845 43.7546 31.6135 43.6308 31.6692C43.5071 31.7249 43.3964 31.8062 43.306 31.9076C43.1936 32.037 43.1087 32.1881 43.0566 32.3516C43.0046 32.5151 42.9864 32.6875 43.0032 32.8584V36.3605Z" fill="#231F20"/>
<path d="M50.4404 29.8704L51.9801 35.7397H52.0541L53.233 29.8704H55.1302L52.5534 40.5968C52.4213 41.1498 52.2506 42.0649 51.6805 42.6179C51.1104 43.1709 50.3728 43.2097 49.7834 43.2097H49.2809L49.2422 41.4376H49.603C49.7733 41.4513 49.9443 41.4217 50.1002 41.3516C50.2561 41.2816 50.3919 41.1732 50.4952 41.0366C50.6693 40.7578 50.7855 40.4465 50.8366 40.1214L51.1426 38.8829L48.3887 29.8704H50.4404Z" fill="#231F20"/>
<path d="M56.2317 32.5382C56.2089 31.803 56.4671 31.0868 56.9532 30.5365C57.2429 30.2594 57.5854 30.0441 57.9602 29.9035C58.3349 29.7628 58.7342 29.6999 59.1338 29.7184C59.8506 29.6987 60.5485 29.9504 61.089 30.4233C61.3527 30.6753 61.5602 30.9805 61.6979 31.3188C61.8356 31.6572 61.9003 32.021 61.8878 32.3862V32.6611C61.8979 33.0961 61.7863 33.5252 61.5657 33.8996C61.3833 34.1801 61.1268 34.404 60.8248 34.5464C61.1418 34.6701 61.413 34.8893 61.6011 35.1737C61.858 35.5771 61.984 36.0505 61.9618 36.5287V36.7745C61.9551 37.4783 61.6929 38.1556 61.2242 38.6791C60.633 39.2319 59.8479 39.5272 59.0404 39.5005C58.3059 39.5016 57.594 39.2454 57.0273 38.7762C56.7761 38.5311 56.5764 38.238 56.4397 37.9142C56.3031 37.5905 56.2324 37.2425 56.2317 36.8909V36.5287H58.0516V36.7162C58.0482 36.9324 58.1226 37.1424 58.261 37.308C58.4711 37.5152 58.7539 37.6313 59.0485 37.6313C59.343 37.6313 59.6258 37.5152 59.836 37.308C59.9977 37.0743 60.0781 36.7935 60.0647 36.5093V36.3379C60.0734 36.2065 60.0525 36.0749 60.0034 35.9528C59.9543 35.8307 59.8784 35.7214 59.7813 35.6329C59.5766 35.4687 59.3217 35.3808 59.0598 35.3839H58.393V33.7444H59.0018C59.1426 33.7499 59.283 33.7257 59.414 33.6733C59.5449 33.621 59.6634 33.5416 59.7619 33.4404C59.9175 33.2395 59.9973 32.9898 59.9874 32.7355V32.6417C59.9852 32.3892 59.9065 32.1433 59.7619 31.9367C59.6781 31.8316 59.571 31.7476 59.449 31.6914C59.3271 31.6353 59.1938 31.6085 59.0598 31.6134C58.9171 31.6075 58.775 31.6335 58.6435 31.6894C58.5121 31.7453 58.3947 31.8298 58.2996 31.9367C58.2143 32.0315 58.1484 32.1423 58.1059 32.2628C58.0633 32.3832 58.0449 32.5109 58.0516 32.6385V32.7743H56.2317V32.5382Z" fill="#231F20"/>
<path d="M64.2383 32.9199C64.2383 32.1761 64.2963 31.1284 65.1691 30.3846C65.7223 29.9545 66.4021 29.7212 67.1017 29.7212C67.8013 29.7212 68.4811 29.9545 69.0343 30.3846C69.9072 31.1284 69.9652 32.1761 69.9652 32.9199V36.2733C69.9652 37.0171 69.9072 38.0648 69.0343 38.8086C68.4811 39.2386 67.8013 39.472 67.1017 39.472C66.4021 39.472 65.7223 39.2386 65.1691 38.8086C64.2963 38.0648 64.2383 37.0171 64.2383 36.2733V32.9199ZM68.0712 32.8034C68.094 32.4626 67.9934 32.1249 67.7878 31.8527C67.602 31.68 67.3581 31.584 67.1049 31.584C66.8517 31.584 66.6079 31.68 66.4221 31.8527C66.2165 32.1249 66.1158 32.4626 66.1387 32.8034V36.3865C66.1114 36.7338 66.2122 37.0791 66.4221 37.3566C66.6089 37.5273 66.8524 37.6218 67.1049 37.6218C67.3575 37.6218 67.601 37.5273 67.7878 37.3566C67.9977 37.0791 68.0985 36.7338 68.0712 36.3865V32.8034Z" fill="#231F20"/>
<path d="M75.5499 29.8703C76.2357 29.8467 76.9037 30.0927 77.4116 30.5559C77.807 31.0107 78.0285 31.5918 78.0365 32.1954V32.6611C78.0636 33.1663 77.9016 33.6634 77.5824 34.0548C77.3804 34.2748 77.1252 34.4386 76.8415 34.5302C77.1909 34.6421 77.4963 34.8616 77.7144 35.1575C77.99 35.5539 78.1302 36.0294 78.1138 36.5125V36.9491C78.1194 37.2816 78.0545 37.6116 77.9234 37.9171C77.7924 38.2226 77.5982 38.4967 77.3537 38.7212C76.7481 39.2741 76.0073 39.3291 75.3051 39.3291H72.4062V29.8703H75.5499ZM74.3163 33.7509H75.1537C75.2953 33.7697 75.4393 33.7517 75.5719 33.6985C75.7045 33.6452 75.8211 33.5586 75.9107 33.4469C76.0782 33.2296 76.1596 32.9577 76.1394 32.6837V32.4929C76.1526 32.2494 76.0705 32.0104 75.9107 31.8268C75.8094 31.7336 75.6895 31.6633 75.5589 31.6203C75.4284 31.5774 75.2903 31.5629 75.1537 31.5778H74.3163V33.7509ZM74.3163 37.599H75.1924C75.3439 37.6119 75.4962 37.5894 75.6376 37.5333C75.779 37.4772 75.9055 37.389 76.0073 37.2757C76.1614 37.0898 76.2366 36.8505 76.2167 36.6095V36.2667C76.2292 36.0115 76.1478 35.7606 75.988 35.5618C75.8838 35.4592 75.7588 35.3804 75.6215 35.3307C75.4842 35.281 75.3378 35.2617 75.1924 35.274H74.3163V37.599Z" fill="#231F20"/>
<path d="M84.3016 38.3881H84.2629C84.0871 38.6617 83.8697 38.9061 83.6187 39.1124C83.309 39.3639 82.9183 39.4927 82.5204 39.4746C81.9943 39.499 81.4787 39.3222 81.0774 38.9799C80.4879 38.4269 80.3945 37.5699 80.3945 36.8068C80.3945 36.1212 80.4332 35.0896 80.984 34.4429C81.6088 33.6991 82.6718 33.6247 83.2386 33.6247C83.3707 33.6247 83.7315 33.6247 84.3209 33.6797V32.6902C84.3344 32.5474 84.3198 32.4034 84.2778 32.2663C84.2358 32.1292 84.1672 32.0019 84.0761 31.8914C83.9782 31.7873 83.8597 31.7047 83.7283 31.6491C83.5969 31.5934 83.4554 31.5658 83.3127 31.5681C83.1691 31.5651 83.0267 31.5944 82.8957 31.6537C82.7648 31.713 82.6487 31.8008 82.5558 31.9108C82.4105 32.0829 82.3236 32.297 82.3078 32.522H80.504C80.4848 31.7651 80.7651 31.0314 81.2835 30.4815C81.8653 29.9559 82.6271 29.6766 83.4094 29.7022C84.1589 29.6816 84.8869 29.9554 85.4386 30.4653C85.7106 30.7653 85.9198 31.1172 86.0537 31.4999C86.1876 31.8827 86.2435 32.2885 86.218 32.6934V39.3032H84.3209L84.3016 38.3881ZM84.3016 35.2061C84.0813 35.1683 83.8583 35.1488 83.6348 35.1478C83.4396 35.1316 83.2433 35.1592 83.06 35.2285C82.8767 35.2979 82.7111 35.4073 82.5751 35.5488C82.3654 35.834 82.2638 36.1848 82.2885 36.5384C82.2765 36.812 82.3424 37.0835 82.4785 37.3209C82.553 37.4568 82.6634 37.5694 82.7975 37.6464C82.9316 37.7235 83.0842 37.7619 83.2386 37.7575C83.8088 37.7575 84.3016 37.3791 84.3016 36.5384V35.2061Z" fill="#231F20"/>
<path d="M92.4412 39.3194V35.4389H91.6037L90.3153 39.3194H88.2539L89.7935 35.1479C89.5061 35.0008 89.2535 34.7935 89.0527 34.5399C88.7722 34.0954 88.6267 33.5785 88.634 33.0524V32.2536C88.6284 31.9211 88.6933 31.5911 88.8243 31.2856C88.9554 30.9801 89.1496 30.706 89.3941 30.4815C89.9997 29.9286 90.7405 29.8704 91.4427 29.8704H94.3415V39.3194H92.4412ZM92.4412 31.3935H91.5715C91.4339 31.386 91.2963 31.4087 91.1684 31.4601C91.0404 31.5114 90.9252 31.5903 90.8307 31.691C90.7255 31.7975 90.6452 31.9262 90.5956 32.0677C90.5461 32.2092 90.5284 32.3599 90.544 32.5091V32.9295C90.5318 33.1847 90.6132 33.4355 90.7727 33.6345C90.878 33.7362 91.0038 33.8142 91.1415 33.8633C91.2793 33.9124 91.4259 33.9314 91.5715 33.919H92.4412V31.3935Z" fill="#231F20"/>
<path d="M98.6549 54.8481V50.9675H97.8206L96.5322 54.8481H94.4805L96.0169 50.6733C95.73 50.5268 95.4782 50.3193 95.2793 50.0653C94.9988 49.6208 94.8533 49.1039 94.8606 48.5778V47.779C94.855 47.4465 94.9199 47.1165 95.0509 46.811C95.182 46.5055 95.3762 46.2314 95.6207 46.0069C96.2262 45.454 96.9671 45.3958 97.6692 45.3958H100.568V54.8481H98.6549ZM98.6549 46.9221H97.782C97.6455 46.9142 97.5088 46.9355 97.3811 46.9845C97.2534 47.0336 97.1375 47.1093 97.0411 47.2067C96.9371 47.3139 96.8578 47.4427 96.8088 47.5841C96.7598 47.7255 96.7424 47.8759 96.7577 48.0248V48.4452C96.7452 48.7004 96.8266 48.9513 96.9864 49.1502C97.0907 49.2524 97.2159 49.3307 97.3532 49.3798C97.4905 49.4289 97.6368 49.4477 97.782 49.4347H98.6549V46.9221Z" fill="#231F20"/>
<path d="M37.2325 49.2083C37.3974 49.2348 37.5665 49.2041 37.7117 49.1212C37.8569 49.0383 37.9696 48.9082 38.0313 48.7523C38.1603 48.461 38.2429 48.151 38.2761 47.8339L38.392 47.1516C38.4416 46.716 38.5904 46.2978 38.8269 45.9292C39.2263 45.3763 39.8511 45.3019 40.4599 45.3019H40.9076V46.9188H40.6564C40.5663 46.9166 40.4766 46.9323 40.3926 46.965C40.3086 46.9978 40.2318 47.0469 40.1668 47.1096C40.0408 47.3025 39.9685 47.5258 39.9574 47.7563L39.8608 48.4613C39.8434 48.8254 39.7728 49.1849 39.6514 49.5284C39.5708 49.7199 39.4393 49.8854 39.2714 50.007L40.9817 54.8577H39.0491L37.6866 50.809H36.6269V54.848H34.7266V45.3957H36.6269V49.2083H37.2325Z" fill="#231F20"/>
<path d="M42.7754 48.4451C42.7754 47.7014 42.8334 46.6536 43.703 45.9099C44.2562 45.4798 44.936 45.2465 45.6356 45.2465C46.3352 45.2465 47.015 45.4798 47.5682 45.9099C48.4443 46.6536 48.4991 47.7014 48.4991 48.4451V51.7986C48.4991 52.5423 48.4443 53.5901 47.5682 54.3338C47.015 54.7639 46.3352 54.9972 45.6356 54.9972C44.936 54.9972 44.2562 54.7639 43.703 54.3338C42.8334 53.5901 42.7754 52.5423 42.7754 51.7986V48.4451ZM46.6083 48.332C46.6356 47.9846 46.5348 47.6393 46.3249 47.3618C46.1376 47.1909 45.8936 47.0963 45.6404 47.0963C45.3873 47.0963 45.1433 47.1909 44.956 47.3618C44.7461 47.6393 44.6452 47.9846 44.6725 48.332V51.915C44.6497 52.2558 44.7504 52.5935 44.956 52.8657C45.1426 53.038 45.3869 53.1335 45.6404 53.1335C45.894 53.1335 46.1383 53.038 46.3249 52.8657C46.5305 52.5935 46.6312 52.2558 46.6083 51.915V48.332Z" fill="#231F20"/>
<path d="M54.7124 50.6765H54.7575L56.7706 45.3958H58.5163V54.8481H56.7319V49.4768L55.1214 53.4963H54.3226L52.7122 49.4768V54.8513H50.9277V45.3958H52.6735L54.7124 50.6765Z" fill="#231F20"/>
<path d="M61.1289 45.3958H66.7463V54.8481H64.8491V47.1129H63.0261V54.8481H61.1289V45.3958Z" fill="#231F20"/>
<path d="M73.1153 53.9135H73.0767C72.9011 54.1873 72.6837 54.4318 72.4325 54.6379C72.1213 54.889 71.7297 55.0177 71.3309 55C70.8048 55.025 70.2889 54.8481 69.8879 54.5053C69.3017 53.9523 69.2051 53.0953 69.2051 52.3322C69.2051 51.6466 69.2437 50.6183 69.7945 49.9683C70.4194 49.2278 71.4823 49.1501 72.0331 49.1501C72.3946 49.1508 72.7558 49.1702 73.1153 49.2083V48.2188C73.1299 48.0748 73.1154 47.9292 73.0728 47.7909C73.0302 47.6526 72.9603 47.5243 72.8673 47.4136C72.7684 47.314 72.6502 47.236 72.52 47.1842C72.3898 47.1325 72.2504 47.1082 72.1104 47.1129C71.9662 47.1094 71.8232 47.1384 71.6916 47.1978C71.5601 47.2571 71.4435 47.3452 71.3502 47.4556C71.205 47.6265 71.1181 47.8395 71.1022 48.0636H69.3017C69.2913 47.6894 69.3545 47.3169 69.4877 46.9673C69.6209 46.6177 69.8215 46.298 70.078 46.0263C70.6597 45.4982 71.4231 45.2176 72.207 45.2437C72.9566 45.2232 73.6846 45.497 74.2362 46.0069C74.5077 46.3072 74.7163 46.6591 74.8496 47.0418C74.983 47.4246 75.0383 47.8303 75.0125 48.235V54.848H73.1153V53.9135ZM73.1153 50.7315C72.8961 50.6947 72.6741 50.6763 72.4518 50.6765C72.2564 50.6596 72.0596 50.6865 71.8758 50.7553C71.6919 50.8241 71.5256 50.933 71.3889 51.0742C71.1792 51.3606 71.0777 51.7124 71.1022 52.067C71.0907 52.3396 71.1566 52.6099 71.2923 52.8463C71.3661 52.9831 71.4762 53.0965 71.6104 53.1742C71.7446 53.2518 71.8976 53.2906 72.0524 53.2861C72.6225 53.2861 73.1153 52.9045 73.1153 52.067V50.7315Z" fill="#231F20"/>
<path d="M77.625 45.3958H79.5254V49.2084H81.458V45.3958H83.3551V54.8481H81.458V50.9223H79.5254V54.8481H77.625V45.3958Z" fill="#231F20"/>
<path d="M87.8679 45.3958V50.6765L90.2031 46.5664V45.4022H92.1002V54.8545H90.2031V49.5705L87.8679 53.6807V54.8416H85.9707V45.3958H87.8679Z" fill="#231F20"/>
<path d="M37.503 29.8704C36.8331 29.8704 36.0472 29.948 35.4545 30.4654C34.7845 31.0636 34.7266 31.8688 34.7266 32.5221V39.313H36.6269V32.8454C36.6208 32.5582 36.7219 32.2791 36.9104 32.0629C37.0248 31.9425 37.1657 31.8507 37.3216 31.7945C37.4776 31.7384 37.6445 31.7196 37.809 31.7395H39.455V29.8704H37.503Z" fill="#231F20"/>
<path d="M5.00217 29.8671H0C0.621808 36.6944 3.76244 43.042 8.80561 47.6643C13.8488 52.2866 20.4304 54.8499 27.2591 54.8512H29.7489V49.8551H27.2591C21.75 49.8551 16.4342 47.8164 12.3282 44.1289C8.22208 40.4415 5.61385 35.3639 5.00217 29.8671ZM24.7725 5.02205V0C18.3989 0.58489 12.4308 3.39309 7.90525 7.93667C3.37966 12.4802 0.582574 18.472 0 24.8709H5.00217C5.56742 19.802 7.83204 15.0765 11.4244 11.4698C15.0168 7.86317 19.7236 5.58955 24.7725 5.02205ZM29.7489 0V5.02205C34.7978 5.58955 39.5046 7.86317 43.097 11.4698C46.6894 15.0765 48.954 19.802 49.5192 24.8709H54.5214C53.9388 18.472 51.1417 12.4802 46.6162 7.93667C42.0906 3.39309 36.1225 0.58489 29.7489 0Z" fill="#98002E"/>
<path d="M24.6455 10.0052L21.125 13.5398C22.2822 14.6981 23.2001 16.0746 23.8258 17.5902C24.4515 19.1058 24.7728 20.7306 24.7711 22.3712V44.8588H29.7475V22.3712C29.7489 20.0744 29.299 17.7999 28.4235 15.678C27.548 13.556 26.2642 11.6283 24.6455 10.0052Z" fill="#98002E"/>
</g>
<defs>
<clipPath id="clip0_69_1844">
<rect width="100.556" height="55" fill="white"/>
</clipPath>
</defs>
</svg>
