<svg width="147" height="33" viewBox="0 0 147 33" fill="none" xmlns="http://www.w3.org/2000/svg">
<path fill-rule="evenodd" clip-rule="evenodd" d="M1.09961 31.9004H31.8987V1.10181H1.09961V31.9004Z" fill="#FEE600"/>
<path fill-rule="evenodd" clip-rule="evenodd" d="M1.09997 31.9H31.8991V1.10139H1.09997V31.9ZM0 33H33V0H0V33Z" fill="black"/>
<path fill-rule="evenodd" clip-rule="evenodd" d="M16.4993 20.2623L7.02095 29.7392L3.26028 25.9833L12.7396 16.5031L10.7622 14.5243V10.6174L9.38888 9.2427V12.6499L8.19353 13.8457L3.38793 9.03865L2.19922 10.2269C2.20776 9.33049 2.38666 6.73622 4.58707 4.5733C6.96164 2.28889 9.52602 3.31816 10.403 4.19604L15.2062 9.00069L13.9809 10.2245L16.4993 12.7438L19.0172 10.2245L17.7924 9.00069L22.5947 4.19604C23.4716 3.31816 26.036 2.28889 28.4106 4.5733C30.6114 6.73622 30.7903 9.33049 30.7994 10.2269L29.6106 9.03865L24.8046 13.8457L23.6097 12.6499V9.2427L22.2354 10.6174V14.5243L20.2581 16.5031L29.7378 25.9833L25.9776 29.7392L16.4993 20.2623Z" fill="black"/>
<path fill-rule="evenodd" clip-rule="evenodd" d="M133.706 13.6028H136.547V10.4527H139.16V13.6028H142V5.72104H139.16V8.49524H136.547V5.72104H133.706V13.6028ZM116.497 7.97302C117.095 7.58093 117.908 7.30272 118.607 7.30272C118.964 7.30272 119.743 7.35361 119.743 8.02307C119.743 8.67501 119.06 8.69086 118.783 8.69086H117.388V10.4035H118.622C119.029 10.4035 119.791 10.4369 119.791 11.0734C119.791 11.3337 119.631 11.8417 118.638 11.8417C117.647 11.8417 117.015 11.5789 116.186 11.0892L115.457 12.9504C117.015 13.818 118.428 13.8993 119.077 13.8993C122.324 13.8993 122.73 12.0695 122.73 11.4667C122.73 10.6333 122.227 9.78453 121.091 9.52258V9.49046C121.804 9.18013 122.259 8.49524 122.259 7.64684C122.259 5.80238 120.263 5.42739 119.044 5.42739C117.908 5.42739 116.592 5.75316 115.733 6.20989L116.497 7.97302ZM110.348 4.69245C111.632 4.69245 112.963 4.20359 113.546 2.86384L111.696 2.18061C111.469 3.09491 110.674 3.14205 110.348 3.14205C110.023 3.14205 109.229 3.09491 109.003 2.18061L107.153 2.86384C107.735 4.20359 109.068 4.69245 110.348 4.69245ZM105.919 5.72104V13.6028H108.676L111.485 9.26314V13.6028H114.326V5.72104H111.599L108.757 9.94678V5.72104H105.919ZM87.0858 11.9064V7.53255C86.1279 7.51545 85.1508 8.21828 85.1508 9.71946C85.1508 11.2211 86.1279 11.9218 87.0858 11.9064ZM89.5691 7.53255V11.9064C90.5274 11.9218 91.5007 11.2211 91.5007 9.71946C91.5007 8.21828 90.5274 7.51545 89.5691 7.53255ZM86.9061 17.0326V13.7208C85.2171 13.7362 82.4236 13.0651 82.4236 9.65355C82.4236 6.26036 85.2026 5.59048 86.9061 5.60592V2.18061H89.7467V5.60592C91.4532 5.59048 94.2275 6.26036 94.2275 9.65355C94.2275 13.0651 91.436 13.7362 89.7467 13.7208V17.0326H86.9061ZM74.309 11.9064V7.53255C73.3512 7.51545 72.3766 8.21828 72.3766 9.71946C72.3766 11.2211 73.3512 11.9218 74.309 11.9064ZM76.7945 7.53255V11.9064C77.7502 11.9218 78.7248 11.2211 78.7248 9.71946C78.7248 8.21828 77.7502 7.51545 76.7945 7.53255ZM74.1301 17.0326V13.7208C72.4404 13.7362 69.6489 13.0651 69.6489 9.65355C69.6489 6.26036 72.4254 5.59048 74.1301 5.60592V2.18061H76.9708V5.60592C78.676 5.59048 81.4507 6.26036 81.4507 9.65355C81.4507 13.0651 78.6606 13.7362 76.9708 13.7208V17.0326H74.1301ZM64.3233 4.69245C65.6073 4.69245 66.9384 4.20359 67.5213 2.86384L65.6715 2.18061C65.4434 3.09491 64.6477 3.14205 64.3233 3.14205C63.9989 3.14205 63.2032 3.09491 62.9746 2.18061L61.1248 2.86384C61.7099 4.20359 63.0414 4.69245 64.3233 4.69245ZM59.893 5.72104V13.6028H62.6506L65.4601 9.26314V13.6028H68.302V5.72104H65.5739L62.7337 9.94678V5.72104H59.893ZM42.5464 4.51184V7.13963H43.5865C44.9993 7.13963 45.1457 6.30666 45.1457 5.81864C45.1457 5.24679 44.9505 4.51184 43.5865 4.51184H42.6766H42.5464ZM39.4961 13.6028V2H44.2846C47.5164 2 48.4251 4.25073 48.4251 5.81864C48.4251 7.40074 47.5006 9.65355 44.2846 9.65355H42.5464V13.6028H39.4961ZM104.148 5.70811V13.6028H101.315V12.7256H101.285C100.787 13.5114 99.8061 13.8651 98.8722 13.8651C96.5079 13.8651 94.8421 11.911 94.8421 9.64897C94.8421 7.38614 96.4749 5.447 98.8427 5.447C99.7599 5.447 100.724 5.78527 101.315 6.47768V5.70811H104.148ZM99.5887 7.87833C98.4373 7.87833 97.7675 8.69462 97.7675 9.66273C97.7675 10.663 98.4373 11.4325 99.5887 11.4325C100.741 11.4325 101.41 10.663 101.41 9.66273C101.41 8.69462 100.741 7.87833 99.5887 7.87833ZM58.1224 5.70811V13.6028H55.2898V12.7256H55.2586C54.7608 13.5114 53.7807 13.8651 52.8455 13.8651C50.4812 13.8651 48.8158 11.911 48.8158 9.64897C48.8158 7.38614 50.4508 5.447 52.8155 5.447C53.7336 5.447 54.6988 5.78527 55.2898 6.47768V5.70811H58.1224ZM53.5628 7.87833C52.4111 7.87833 51.7412 8.69462 51.7412 9.66273C51.7412 10.663 52.4111 11.4325 53.5628 11.4325C54.7137 11.4325 55.3827 10.663 55.3827 9.66273C55.3827 8.69462 54.7137 7.87833 53.5628 7.87833ZM132.308 9.99642V10.2901H126.347C126.347 11.4292 126.956 12.044 128.12 12.044C128.73 12.044 129.165 11.8446 129.475 11.3207H132.2C131.747 13.1831 129.958 14.0303 128.137 14.0303C125.493 14.0303 123.515 12.5525 123.515 9.82665C123.515 7.19552 125.336 5.61217 127.935 5.61217C130.704 5.61217 132.308 7.30356 132.308 9.99642ZM126.394 8.67418H129.676C129.539 7.92004 128.838 7.42869 128.075 7.42869C127.251 7.42869 126.565 7.8579 126.394 8.67418ZM44.0316 26.1836H43.1559L42.7232 28.645H43.5565C45.4209 28.645 45.7839 28.1315 45.8909 27.4717C46.0103 26.7455 45.8643 26.1836 44.0316 26.1836ZM49.1595 27.5055C49.0298 28.2846 48.7688 29.0725 48.1901 29.6436C46.9151 30.8949 44.9916 30.9954 43.7714 31H39L41.0266 19.3977H49.1471L48.7675 21.6822H43.857L43.4778 23.9976H44.9C45.9499 23.9976 47.2964 24.1348 48.2556 24.934C48.9618 25.5225 49.338 26.4101 49.1595 27.5055ZM57.7003 28.9837H53.2191L52.0113 31H48.559L55.3549 19.3977H58.906L61.638 31H58.1694L57.7003 28.9837ZM57.2154 26.6767L56.5186 22.9836H56.4848L54.5096 26.6767H57.2154ZM79.7922 19.3977H76.5128L74.5325 30.9987L77.7836 30.9992L78.6447 25.9684H78.6777L82.02 31L86.2358 30.9992L81.8475 24.8902L87.7676 19.3977H83.7337L78.9833 24.1823H78.9473L79.7922 19.3977ZM67.208 19.3977L66.4847 23.7227H70.8217L71.5437 19.3977H74.7037L72.7815 31H69.6327L70.4489 26.0118H66.1145L65.2948 31H62.1212L64.0596 19.3977H67.208Z" fill="black"/>
</svg>
