<svg width="28" height="28" viewBox="0 0 28 28" fill="none" xmlns="http://www.w3.org/2000/svg">
<path d="M23.332 8.16658H18.6654V4.66659C18.6654 3.37975 17.6189 2.33325 16.332 2.33325H11.6654C10.3785 2.33325 9.33203 3.37975 9.33203 4.66659V10.4999H4.66536C3.37853 10.4999 2.33203 11.5464 2.33203 12.8333V23.3333C2.33203 23.6427 2.45495 23.9394 2.67374 24.1582C2.89253 24.377 3.18928 24.4999 3.4987 24.4999H24.4987C24.8081 24.4999 25.1049 24.377 25.3237 24.1582C25.5424 23.9394 25.6654 23.6427 25.6654 23.3333V10.4999C25.6654 9.21309 24.6189 8.16658 23.332 8.16658ZM4.66536 12.8333H9.33203V22.1666H4.66536V12.8333ZM11.6654 11.6666V4.66659H16.332V22.1666H11.6654V11.6666ZM23.332 22.1666H18.6654V10.4999H23.332V22.1666Z" fill="black"/>
</svg>
