<svg width="28" height="28" viewBox="0 0 28 28" fill="none" xmlns="http://www.w3.org/2000/svg">
<path d="M23.332 3.5H4.66536C4.04653 3.5 3.45303 3.74583 3.01545 4.18342C2.57786 4.621 2.33203 5.21449 2.33203 5.83333V8.16667C2.33449 8.57387 2.44347 8.97333 2.64814 9.32536C2.85281 9.6774 3.14604 9.96974 3.4987 10.1733V22.1667C3.4987 22.7855 3.74453 23.379 4.18212 23.8166C4.6197 24.2542 5.21319 24.5 5.83203 24.5H22.1654C22.7842 24.5 23.3777 24.2542 23.8153 23.8166C24.2529 23.379 24.4987 22.7855 24.4987 22.1667V10.1733C24.8514 9.96974 25.1446 9.6774 25.3493 9.32536C25.5539 8.97333 25.6629 8.57387 25.6654 8.16667V5.83333C25.6654 5.21449 25.4195 4.621 24.9819 4.18342C24.5444 3.74583 23.9509 3.5 23.332 3.5ZM4.66536 5.83333H23.332V8.16667H4.66536V5.83333ZM5.83203 22.1667V10.5H22.1654V22.1667H5.83203Z" fill="black"/>
<path d="M9.33203 12.8333H18.6654V15.1666H9.33203V12.8333Z" fill="black"/>
</svg>
