<svg width="14" height="16" viewBox="0 0 14 16" fill="none" xmlns="http://www.w3.org/2000/svg">
<path d="M12.6361 4.34304C12.9385 4.05503 13.1049 3.67253 13.1049 3.26566C13.1049 2.85878 12.9385 2.47628 12.6361 2.18827L11.3673 0.979824C11.0649 0.691809 10.6633 0.533325 10.2361 0.533325C9.8089 0.533325 9.4073 0.69181 9.1057 0.979062L0.600098 9.0549V12.4189H4.1305L12.6361 4.34304ZM10.2361 2.05721L11.5057 3.26489L10.2337 4.47181L8.9649 3.26413L10.2361 2.05721ZM2.2001 10.895V9.68732L7.8321 4.34L9.1009 5.54844L3.4697 10.895H2.2001ZM0.600098 13.9428H13.4001V15.4667H0.600098V13.9428Z" fill="#838383"/>
</svg>
