<svg width="119" height="35" viewBox="0 0 119 35" fill="none" xmlns="http://www.w3.org/2000/svg">
<g clip-path="url(#clip0_69_1754)">
<path fill-rule="evenodd" clip-rule="evenodd" d="M93.3658 1.81238H94.6907H97.5898V5.9145H96.2656H93.3658V1.81238ZM91.4724 32.5345V29.1187C93.2652 29.1187 93.3658 28.4657 93.3658 26.8426V8.12405H97.7744V25.0172V25.0499V27.9131C97.7744 28.7006 97.6904 29.4536 97.5398 30.14C97.1879 31.6465 95.2432 32.4667 93.8856 32.5172C93.5844 32.5345 91.5063 32.5006 91.4724 32.5345ZM84.7345 15.2898C84.7345 13.4817 83.5442 11.5059 81.5001 11.5059C78.8017 11.5059 77.846 13.5656 77.846 16.0767V25.6869L73.3874 25.653V8.86097V8.84432V8.4589H77.5941V10.5013C79.1863 8.34173 80.0913 7.82249 83.0584 7.82249C84.4493 7.82249 85.6562 8.29116 86.8965 9.04474C89.0924 10.3675 88.9418 13.314 88.9418 15.5408V25.6536H84.7351V15.2898H84.7345ZM65.4932 15.2392C65.4265 14.218 65.124 13.3639 64.6215 12.6948C64.119 12.0257 63.2639 11.6237 62.0403 11.5059C60.8673 11.6231 60.0289 12.0251 59.5264 12.7115C59.0066 13.3812 58.688 14.2353 58.5541 15.2392H65.4932ZM112.658 15.2392C112.591 14.218 112.289 13.3639 111.786 12.6948C111.283 12.0257 110.429 11.6237 109.205 11.5059C108.049 11.6231 107.211 12.0251 106.691 12.7115C106.171 13.3812 105.853 14.2353 105.719 15.2392H112.658ZM69.8512 20.6647C68.175 25.8874 65.3592 26.1895 61.8897 26.2062C59.3085 26.2062 56.9786 25.1005 55.7216 23.4096C54.4647 21.7186 53.8276 19.6096 53.7776 17.1145C53.7776 17.0806 53.7776 17.0307 53.7776 16.9807C53.7776 16.9141 53.7776 16.8636 53.7776 16.8303C53.7776 15.357 54.0122 13.9337 54.498 12.561C54.9672 11.205 55.8223 10.0499 57.0292 9.12923C57.6157 8.66055 58.2528 8.34235 58.9733 8.12466C59.6943 7.92363 60.4148 7.82311 61.1519 7.82311H62.4255C62.8614 7.82311 63.2806 7.85641 63.6992 7.92363C64.135 7.99023 64.5369 8.07409 64.9561 8.17461C66.0964 8.47617 67.1014 9.09531 67.9398 10.0333C68.7949 10.9706 69.3974 12.0085 69.7326 13.1808C69.8499 13.7333 69.9512 14.2692 70.0012 14.7878C70.0512 15.3237 70.0851 15.8596 70.0851 16.3949C70.0851 16.6126 70.0851 16.8469 70.0851 17.0646C70.0851 17.2989 70.0685 17.9686 70.0512 18.2196H58.4534C58.4201 20.6974 59.861 22.6739 61.9397 22.7399C63.951 22.7904 64.9067 22.1041 65.5938 20.6647H69.8512ZM117.032 20.6647C115.34 25.8874 112.524 26.1895 109.054 26.2062C106.473 26.2062 104.126 25.1005 102.869 23.4096C101.611 21.7186 100.975 19.6096 100.925 17.1145C100.925 17.0806 100.925 17.0307 100.925 16.9807C100.925 16.9141 100.925 16.8636 100.925 16.8303C100.925 15.357 101.16 13.9337 101.646 12.561C102.132 11.205 102.97 10.0499 104.177 9.12923C104.781 8.66055 105.434 8.34235 106.138 8.12466C106.859 7.92363 107.579 7.82311 108.317 7.82311H109.607C110.027 7.82311 110.445 7.85641 110.881 7.92363C111.3 7.99023 111.719 8.07409 112.121 8.17461C113.262 8.47617 114.267 9.09531 115.122 10.0333C115.959 10.9706 116.563 12.0085 116.898 13.1808C117.032 13.7333 117.116 14.2692 117.166 14.7878C117.234 15.3237 117.25 15.8596 117.25 16.3949C117.25 16.6126 117.25 16.8469 117.25 17.0646C117.25 17.2989 117.234 17.9686 117.217 18.2196H105.619C105.585 20.6974 107.026 22.6739 109.121 22.7399C111.116 22.7904 112.071 22.1041 112.759 20.6647H117.032ZM42.5984 8.29178H46.889V11.0539C47.7108 10.1998 48.5652 7.68867 52.6046 7.83976V12.3933C51.5322 12.3933 49.5209 12.3766 48.2972 13.4817C47.4255 14.2686 47.007 15.4569 46.9897 17.0806L46.9557 25.7529H42.5984C42.5984 20.0783 42.5984 13.9837 42.5984 8.29178ZM26.1723 17.0985C26.1723 18.4885 26.4908 19.6929 27.1613 20.748C27.8151 21.8031 28.9714 22.4223 30.6308 22.5561C32.2736 22.4223 33.4133 21.8031 34.0498 20.7313C34.7036 19.6435 35.0221 18.4552 35.0221 17.0985C35.0221 17.0313 35.0221 16.9647 35.0221 16.8802C35.0221 16.8136 35.0221 16.7297 35.0221 16.6292C34.9715 15.5241 34.653 14.4863 34.0831 13.5323C33.53 12.561 32.541 11.9585 31.1161 11.7075C31.0488 11.7075 30.9821 11.7075 30.9321 11.7075C30.8815 11.6909 30.8148 11.6742 30.7648 11.6576C30.6981 11.6576 30.6308 11.6576 30.5802 11.6409C30.5296 11.6409 30.4629 11.6409 30.4129 11.6409C28.9208 11.7581 27.8484 12.3446 27.1779 13.3991C26.5075 14.4536 26.1723 15.6919 26.1723 17.0985ZM21.9656 17.249C21.9656 14.5202 22.6527 12.3433 24.0436 10.6857C25.4351 9.02809 27.3792 8.19126 29.8598 8.19126H31.1334C31.4519 8.17461 31.7872 8.17461 32.1224 8.20791C32.4743 8.24121 32.8095 8.29178 33.1447 8.35838C35.2734 8.70989 36.8149 9.76502 37.7879 11.4726C38.7596 13.1802 39.2628 15.0388 39.2961 17.014C39.2961 17.064 39.2961 17.0979 39.2961 17.1312C39.2961 17.1645 39.2961 17.1978 39.2961 17.2484C39.2795 19.81 38.6257 21.953 37.3181 23.6439C36.0105 25.3348 33.9825 26.1889 31.2673 26.1889L29.9937 26.2216C27.2952 26.1889 25.2839 25.3348 23.9603 23.6439C22.6187 21.9536 21.9656 19.8107 21.9656 17.249ZM6.67231 18.3763C6.8285 19.305 7.15199 20.1794 7.66873 20.9996C8.15829 21.7766 8.85838 22.2558 9.7906 22.4291C10.0857 22.4833 10.3746 22.5037 10.6734 22.4833C11.6884 22.4112 12.4675 21.8512 12.999 21.0656C13.5151 20.2769 13.8257 19.3229 13.9288 18.2159C14.0059 17.3877 14.0022 16.501 13.8738 15.682C13.7429 14.847 13.462 14.0632 13.0663 13.3306C12.6551 12.5838 12.0137 12.1059 11.1414 11.8747C10.6561 11.7464 10.2592 11.6705 9.76158 11.7778C8.77195 11.99 8.01445 12.5339 7.50142 13.3979C7.02482 14.2001 6.73651 15.1134 6.62662 16.1464C6.54945 16.8734 6.55192 17.6572 6.67231 18.3763ZM14.5233 24.6318C12.8039 25.9842 10.4962 26.0422 8.404 25.8763C6.29139 25.7067 4.68564 24.7971 3.56142 23.1592C2.33782 21.3345 1.71737 19.292 1.75132 17.0479C1.75132 14.7712 2.35448 12.7448 3.57809 10.9367C4.8017 9.14526 6.62847 8.22456 9.07569 8.22456C12.9305 8.20791 13.2157 9.17856 14.3054 11.0039V8.72715H18.5121L18.5713 23.7302C18.5769 25.037 18.759 28.7105 17.4224 30.5426C16.752 31.4461 15.9302 32.0985 14.9079 32.4839C13.8855 32.8694 12.8299 33.0704 11.7569 33.1197C11.6229 33.1197 11.4883 33.1536 11.3544 33.1536C11.2204 33.1536 11.0858 33.1536 10.9525 33.1536L9.67885 33.1876C9.59489 33.1709 9.51155 33.1536 9.44426 33.1536C9.36029 33.1536 9.29362 33.1536 9.20966 33.1536C9.14298 33.1536 9.07569 33.1536 9.0084 33.1536C8.94111 33.1536 8.8911 33.1536 8.85776 33.1536C7.26497 33.137 6.05865 32.7528 4.73441 32.0153C3.3935 31.295 2.72305 29.7712 2.67242 27.9464L7.41622 27.9804C7.61748 29.8723 8.67317 30.1233 10.366 30.1233C14.2263 30.1233 14.5233 27.4759 14.5233 24.6318Z" fill="black"/>
</g>
<defs>
<clipPath id="clip0_69_1754">
<rect width="119" height="35" fill="white"/>
</clipPath>
</defs>
</svg>
