<svg width="171" height="27" viewBox="0 0 171 27" fill="none" xmlns="http://www.w3.org/2000/svg">
<g clip-path="url(#clip0_69_1765)">
<path d="M14.0232 18.2835V4.34842H12.1205L7.34449 16.5633L2.60664 4.34842H0.513672V18.2835H2.32095V8.33824L6.26 18.2835H8.25747L12.1965 8.33824V18.2835H14.0232ZM46.4502 17.9055V16.3372C46.2591 16.4274 46.0317 16.5192 45.7654 16.6103C45.4953 16.7021 45.1879 16.7823 44.8393 16.844C44.493 16.9073 44.1033 16.9389 43.6717 16.942C42.9396 16.9451 42.2992 16.8471 41.7472 16.6481C41.1952 16.449 40.7356 16.1374 40.3677 15.7062C39.9966 15.2749 39.721 14.7102 39.537 14.0144C39.3492 13.3178 39.2575 12.4739 39.2575 11.478V11.2882C39.2575 9.48304 39.5874 8.13153 40.2466 7.22973C40.9064 6.33176 41.9025 5.88125 43.2346 5.88125C43.7167 5.88125 44.1219 5.89668 44.455 5.92831C44.7849 5.95994 45.0675 6.00082 45.2989 6.05097C45.5302 6.10111 45.7367 6.15511 45.9145 6.21528C46.0946 6.27468 46.2724 6.33484 46.4502 6.39116V4.6138C46.2568 4.53742 46.0216 4.46182 45.7522 4.39548C45.4797 4.32682 45.1529 4.26974 44.7756 4.22577C44.3983 4.18488 43.9543 4.15942 43.4434 4.15942C42.4389 4.16251 41.5477 4.32065 40.7706 4.63848C39.9904 4.954 39.3336 5.41068 38.798 6.0124C38.2615 6.61413 37.8555 7.33924 37.5799 8.19633C37.3036 9.05028 37.1645 10.0184 37.1645 11.0984V11.6662C37.1677 12.6397 37.2756 13.503 37.4844 14.2505C37.694 15.0011 37.989 15.6429 38.3663 16.1821C38.7436 16.7214 39.1846 17.1618 39.6892 17.5051C40.193 17.8484 40.7418 18.1045 41.3311 18.2688C41.9242 18.4316 42.5398 18.5103 43.1772 18.5103C43.7734 18.5073 44.2904 18.4756 44.7282 18.4139C45.1653 18.3507 45.5271 18.2719 45.8128 18.1801C46.0977 18.0876 46.3104 17.9958 46.4502 17.9055ZM60.972 11.7603V11.0043C60.972 9.53936 60.7756 8.29736 60.3734 7.27909C59.9729 6.26157 59.3611 5.48937 58.5398 4.96017C57.7184 4.43097 56.6782 4.16251 55.4158 4.15942C54.4812 4.16251 53.6622 4.32065 52.9674 4.6354C52.2702 4.95091 51.6934 5.4076 51.233 6.00005C50.7735 6.59561 50.428 7.31381 50.2029 8.15539C49.9738 8.99704 49.8605 9.94819 49.8605 11.0043V11.7981C49.8628 12.9614 49.9964 13.9627 50.2595 14.8074C50.5227 15.6545 50.9 16.3518 51.3891 16.8972C51.8805 17.4442 52.4636 17.8523 53.142 18.1161C53.8244 18.3815 54.5821 18.5095 55.4158 18.5095C56.2598 18.5126 57.0237 18.3876 57.706 18.1362C58.3876 17.8831 58.9706 17.4897 59.4566 16.9505C59.9441 16.4128 60.3152 15.7146 60.5792 14.8591C60.8393 14.0013 60.9689 12.9676 60.972 11.7603ZM58.8977 11.5713C58.8977 12.6428 58.8254 13.5377 58.6795 14.2505C58.5305 14.9633 58.3116 15.5264 58.0196 15.9391C57.7277 16.3518 57.3667 16.6442 56.932 16.8224C56.498 16.9944 55.9935 17.0801 55.4158 17.0739C54.8484 17.077 54.3508 16.9821 53.9168 16.7908C53.4852 16.5979 53.1203 16.2863 52.8253 15.8581C52.5303 15.4254 52.3083 14.8545 52.1592 14.1463C52.0101 13.4374 51.9341 12.5641 51.9341 11.5335V11.1933C51.9341 10.1974 52.0008 9.35268 52.1336 8.65301C52.2671 7.95408 52.4736 7.38941 52.7554 6.95509C53.0349 6.52309 53.3959 6.20448 53.8368 6.00622C54.2778 5.80411 54.8041 5.70691 55.4158 5.71C56.2729 5.71 56.9577 5.91134 57.4677 6.31481C57.9785 6.72132 58.3465 7.33001 58.5716 8.14233C58.7937 8.95233 58.9047 9.97061 58.8977 11.1933V11.5713ZM67.0847 9.94512V5.899H73.7819V4.34842H65.1049V18.2835H69.8048C70.8484 18.2835 71.7243 18.1254 72.4407 17.8137C73.154 17.502 73.6965 17.0423 74.0645 16.4274C74.4318 15.8126 74.6164 15.0504 74.6196 14.1417C74.6164 13.2507 74.4318 12.4947 74.0708 11.8706C73.7059 11.2465 73.1798 10.7675 72.4847 10.4404C71.7934 10.1125 70.9501 9.94819 69.9574 9.94512H67.0847ZM72.5638 14.0106C72.5682 14.5683 72.4847 15.0504 72.3202 15.457C72.155 15.8635 71.8919 16.176 71.5277 16.3974C71.1629 16.6188 70.6838 16.7306 70.0905 16.7337H67.0847V11.478H69.9197C70.5438 11.481 71.0518 11.5914 71.4417 11.802C71.831 12.0165 72.1167 12.3126 72.2988 12.6906C72.4784 13.0679 72.5682 13.5091 72.5638 14.0106ZM79.666 16.3927C79.4117 16.3927 79.1618 16.358 78.9113 16.2917C78.6608 16.2222 78.3883 16.1181 78.0869 15.9769V17.8484C78.3688 18.0158 78.6859 18.1392 79.045 18.2118C79.3998 18.2874 79.7678 18.3221 80.1407 18.3221C80.6041 18.3282 81.0167 18.2619 81.3815 18.1261C81.7432 17.9919 82.064 17.7558 82.3397 17.421C82.6153 17.0862 82.8533 16.6272 83.053 16.041C83.2558 15.4516 83.4272 14.7072 83.5635 13.8069C83.7035 12.9051 83.8196 11.8212 83.9094 10.5515C83.9565 9.88571 84.008 9.16136 84.0614 8.37685C84.1148 7.59228 84.1663 6.77224 84.2133 5.91905H87.9425V18.2843H89.9593V4.34842H82.4445C82.3773 5.5588 82.3108 6.66116 82.2442 7.65401C82.177 8.64993 82.1111 9.53936 82.0446 10.3239C81.9585 11.3538 81.8574 12.2301 81.7463 12.9452C81.6383 13.6611 81.5108 14.2443 81.3752 14.6971C81.2358 15.1507 81.0801 15.5002 80.9124 15.7486C80.741 15.9939 80.5539 16.1644 80.3473 16.2593C80.1389 16.3518 79.9134 16.3974 79.666 16.3927ZM94.2831 17.9055V16.3549C94.474 16.4467 94.7019 16.537 94.9688 16.635C95.2375 16.7298 95.5445 16.8085 95.893 16.8749C96.239 16.9412 96.6283 16.9759 97.0609 16.979C97.8132 16.9821 98.4605 16.9034 99.0081 16.7391C99.5537 16.5748 100.007 16.3025 100.369 15.9222C100.727 15.5411 101.003 15.0304 101.194 14.3855C101.383 13.7429 101.495 12.9421 101.534 11.9871H95.824V10.4559H101.513C101.454 9.36888 101.276 8.48636 100.98 7.80521C100.686 7.12481 100.251 6.62725 99.6812 6.31173C99.1098 5.99388 98.3827 5.8396 97.4986 5.84191C97.0164 5.84191 96.6101 5.8612 96.2786 5.89282C95.9477 5.92754 95.6657 5.96842 95.4334 6.02242C95.2017 6.07565 94.9964 6.13197 94.8181 6.19214C94.6379 6.2554 94.4602 6.31481 94.2831 6.37189V4.6138C94.4771 4.53742 94.7107 4.46182 94.9801 4.39548C95.2538 4.32682 95.5791 4.26974 95.9571 4.22577C96.3345 4.18488 96.779 4.15942 97.2901 4.15942C98.691 4.16251 99.8558 4.42711 100.788 4.96017C101.716 5.48937 102.411 6.26774 102.875 7.29761C103.338 8.32819 103.569 9.59568 103.569 11.0984V11.6662C103.564 12.9298 103.407 13.9982 103.104 14.8738C102.799 15.7463 102.37 16.4529 101.826 16.9875C101.28 17.5236 100.642 17.9109 99.9167 18.1539C99.1902 18.3939 98.404 18.5126 97.5564 18.5095C96.9599 18.5064 96.4431 18.4748 96.0048 18.4131C95.5678 18.3498 95.2061 18.2712 94.921 18.1794C94.6366 18.0876 94.4231 17.9958 94.2831 17.9055ZM117.462 18.2835V4.34842H115.445V10.4373H109.776V4.34842H107.758V18.2835H109.776V12.0064H115.445V18.2835H117.462ZM130.92 18.2835V16.753H124.355V11.9871H129.397V10.4559H124.355V5.899H130.634V4.34842H122.397V18.2835H130.92ZM143.672 9.01864V8.14924C143.672 7.59461 143.581 7.08393 143.402 6.62104C143.225 6.16051 142.962 5.75705 142.619 5.41994C142.274 5.07974 141.852 4.81822 141.35 4.63231C140.852 4.4464 140.281 4.35151 139.638 4.34842H134.767V18.2835H136.765V12.6305H139.886C140.482 12.6266 141.015 12.5325 141.481 12.3466C141.947 12.1576 142.347 11.8992 142.671 11.5683C142.997 11.2373 143.244 10.8562 143.416 10.4211C143.588 9.98599 143.672 9.52008 143.672 9.01864ZM141.599 9.07496C141.599 9.43833 141.536 9.76541 141.411 10.0554C141.284 10.3455 141.095 10.5723 140.834 10.7428C140.577 10.9125 140.246 11.0012 139.848 11.0043H136.765V5.99388H139.696C140.079 5.99697 140.412 6.08491 140.698 6.26157C140.978 6.43819 141.201 6.68352 141.356 6.99904C141.515 7.31764 141.596 7.68641 141.599 8.11144V9.07496ZM155.665 4.34842H147.634V18.2835H149.653V5.9746H155.665V4.34842ZM170.034 11.7603V11.0043C170.034 9.53936 169.838 8.29736 169.435 7.27909C169.036 6.26157 168.423 5.48937 167.604 4.96017C166.78 4.43097 165.742 4.16251 164.479 4.15942C163.544 4.16251 162.724 4.32065 162.03 4.6354C161.333 4.95091 160.756 5.4076 160.296 6.00005C159.837 6.59561 159.491 7.31381 159.266 8.15539C159.038 8.99704 158.924 9.94819 158.924 11.0043V11.7981C158.927 12.9614 159.061 13.9627 159.324 14.8074C159.587 15.6545 159.963 16.3518 160.453 16.8972C160.944 17.4442 161.528 17.8523 162.208 18.1161C162.888 18.3815 163.647 18.5095 164.481 18.5095C165.325 18.5126 166.089 18.3876 166.77 18.1362C167.452 17.8831 168.036 17.4897 168.521 16.9505C169.01 16.4128 169.381 15.7146 169.643 14.8591C169.901 14.0013 170.032 12.9676 170.034 11.7603ZM167.96 11.5713C167.96 12.6428 167.888 13.5377 167.741 14.2505C167.592 14.9633 167.374 15.5264 167.083 15.9391C166.79 16.3518 166.428 16.6442 165.994 16.8224C165.561 16.9944 165.056 17.0801 164.478 17.0739C163.912 17.077 163.414 16.9821 162.978 16.7908C162.546 16.5979 162.182 16.2863 161.887 15.8581C161.593 15.4254 161.37 14.8545 161.222 14.1463C161.073 13.4374 160.997 12.5641 160.997 11.5335V11.1933C160.997 10.1974 161.062 9.35268 161.196 8.65301C161.331 7.95408 161.536 7.38941 161.819 6.95509C162.096 6.52309 162.459 6.20448 162.899 6.00622C163.34 5.80411 163.868 5.70691 164.479 5.71C165.336 5.71 166.021 5.91134 166.533 6.31481C167.042 6.72132 167.41 7.33001 167.635 8.14233C167.857 8.95233 167.969 9.97061 167.962 11.1933V11.5713H167.96Z" fill="#0061AA"/>
<path fill-rule="evenodd" clip-rule="evenodd" d="M25.8984 0.00317383L27.2539 3.74383H26.7975L25.8984 1.65172L24.9995 3.74383H24.543L25.8984 0.00317383Z" fill="#F66C1E"/>
<path fill-rule="evenodd" clip-rule="evenodd" d="M21.4082 1.49731L23.9677 3.99751L23.5982 4.17418L22.0533 2.82958L22.1449 4.86846L21.7762 5.04589L21.4082 1.49731Z" fill="#F66C1E"/>
<path fill-rule="evenodd" clip-rule="evenodd" d="M18.1914 4.39111L21.1826 5.41634L20.9559 5.6956L19.213 5.20883L20.0646 6.79645L19.838 7.07568L18.1914 4.39111Z" fill="#F66C1E"/>
<path fill-rule="evenodd" clip-rule="evenodd" d="M16.4277 8.17722L19.4197 7.84863L19.3335 8.19731L17.7017 8.48966L18.9927 9.56891L18.9058 9.91677L16.4277 8.17722Z" fill="#F66C1E"/>
<path fill-rule="evenodd" clip-rule="evenodd" d="M30.6125 1.55371L28.0234 4.02383L28.3899 4.20357L29.9518 2.87826L29.8361 4.9156L30.2018 5.09611L30.6125 1.55371Z" fill="#F66C1E"/>
<path fill-rule="evenodd" clip-rule="evenodd" d="M33.7071 4.38623L30.7168 5.41377L30.9435 5.69149L32.6855 5.20394L31.8355 6.79309L32.0622 7.07156L33.7071 4.38623Z" fill="#F66C1E"/>
<path fill-rule="evenodd" clip-rule="evenodd" d="M35.4259 8.00599L32.4277 7.73291L32.5209 8.07926L34.1581 8.34154L32.8873 9.44471L32.9805 9.79106L35.4259 8.00599Z" fill="#F66C1E"/>
<path fill-rule="evenodd" clip-rule="evenodd" d="M26.0161 3.99585C29.5219 3.99585 32.364 6.81927 32.364 10.3031C32.364 13.7868 29.5219 16.611 26.0161 16.611C22.5102 16.611 19.668 13.7861 19.668 10.3031C19.668 6.81927 22.5102 3.99585 26.0161 3.99585ZM26.0161 5.29802C23.2345 5.29802 20.9793 7.53904 20.9793 10.3031C20.9793 13.0679 23.2345 15.3096 26.0161 15.3096C28.7976 15.3096 31.0528 13.0679 31.0528 10.3031C31.0528 7.53904 28.7976 5.29802 26.0161 5.29802Z" fill="#F66C1E"/>
<path fill-rule="evenodd" clip-rule="evenodd" d="M25.8984 20.9358L27.2539 17.1943H26.7975L25.8984 19.2872L24.9995 17.1943H24.543L25.8984 20.9358Z" fill="#F66C1E"/>
<path fill-rule="evenodd" clip-rule="evenodd" d="M21.5802 19.5195L24.0962 16.9777L23.7243 16.8072L22.2028 18.1772L22.2602 16.1368L21.8876 15.9663L21.5802 19.5195Z" fill="#F66C1E"/>
<path fill-rule="evenodd" clip-rule="evenodd" d="M17.9961 16.3028L21.0183 15.3731L20.8001 15.0869L19.0433 15.5174L19.9446 13.9583L19.7281 13.6714L17.9961 16.3028Z" fill="#F66C1E"/>
<path fill-rule="evenodd" clip-rule="evenodd" d="M16.3477 12.4292L19.3264 12.8627L19.2527 12.5117L17.6309 12.1615L18.96 11.1286L18.8862 10.7776L16.3477 12.4292Z" fill="#F66C1E"/>
<path fill-rule="evenodd" clip-rule="evenodd" d="M30.3215 19.5195L27.8047 16.9777L28.1765 16.8072L29.6997 18.1772L29.6423 16.1368L30.0141 15.9663L30.3215 19.5195Z" fill="#F66C1E"/>
<path fill-rule="evenodd" clip-rule="evenodd" d="M33.8891 16.3235L30.8691 15.3847L31.0873 15.1L32.8441 15.5359L31.9459 13.9729L32.1641 13.6875L33.8891 16.3235Z" fill="#F66C1E"/>
<path fill-rule="evenodd" clip-rule="evenodd" d="M35.5202 12.5703L32.5352 12.9591L32.6144 12.6089L34.2407 12.2833L32.9272 11.2311L33.0072 10.8801L35.5202 12.5703Z" fill="#F66C1E"/>
</g>
<defs>
<clipPath id="clip0_69_1765">
<rect width="170.791" height="27" fill="white"/>
</clipPath>
</defs>
</svg>
